Mike Bassett England Manager.
This movie is just a must see for those who are waiting for the 2010 World Cup in South Africa.
Enjoy fellow England Fans!!!! This is our year...... knock on wood!!!!

From wikipedia;
Mike Bassett: England Manager is a 2001 satirical comedy film directed by Steve Barron, following the fortunes of the manager of Division One football club Norwich City, Mike Bassett, who having led his side to the 'Mr Clutch Cup', is appointed England manager.
The film takes the form of a fly-on-the-wall fictional documentary (mockumentary) following Bassett (played by Ricky Tomlinson) as he starts his international management career. Martin Bashir, well known as a journalist and presenter in real life, plays the interviewer and provides the voice-over, and the film features cameo appearance s from Pelé and Ronaldo. The film satirises many targets, such as the mysterious figures who run the Football Association, the stereotypical view of an old-fashioned manager, and the tabloid press 's unfailing habit of building the England team up so they can knock them down hard.
Only mentioned once, the film is set at the 2002 World Cup, as it is referred to as 'World Cup XVII', which would be the 17th World Cup which was the tournament in 2002.
The film was followed by a TV series, Mike Bassett: Manager in 2005

Link to a vlc snapshot to see the quality (or lack there of) of the file:
http://img153.imageshack.us/img153/9030/vlcsnap2010052000h34m26.jpg

Mike Bassett - England Manager.avi
Format                           : AVI
Format/Info                      : Audio Video Interleave
File size                        : 822 MiB
Duration                         : 1h 25mn
Overall bit rate                 : 1 341 Kbps

Video
Format                           : MPEG-4 Visual
Format profile                   : Simple@L1
Format settings, BVOP            : No
Format settings, QPel            : No
Format settings, GMC             : No warppoints
Format settings, Matrix          : Default
Codec ID                         : DIVX
Codec ID/Info                    : Project Mayo
Codec ID/Hint                    : DivX 4
Duration                         : 1h 25mn
Bit rate                         : 1 200 Kbps
Width                            : 720 pixels
Height                           : 576 pixels
Display aspect ratio             : 4/3
Frame rate                       : 25.000 fps
Standard                         : PAL
Resolution                       : 24 bits
Colorimetry                      : 4:2:0
Scan type                        : Progressive
Bits/(Pixel*Frame)               : 0.116
Stream size                      : 735 MiB (89%)
Writing library                  : avc2.0.11.1110

Audio
Format                           : MPEG Audio
Format version                   : Version 1
Format profile                   : Layer 3
Codec ID                         : 55
Codec ID/Hint                    : MP3
Duration                         : 1h 25mn
Bit rate mode                    : Constant
Bit rate                         : 128 Kbps
Channel(s)                       : 2 channels
Sampling rate                    : 48.0 KHz
Resolution                       : 16 bits
Stream size                      : 78.5 MiB (10%)
Alignment                        : Aligned on interleaves
Interleave, duration             : 24 ms (0.60 video frame)